<svg width="50" height="50" viewBox="0 0 50 50" fill="none" xmlns="http://www.w3.org/2000/svg">
<rect width="50" height="50" fill="white"/>
<path d="M42.0951 30.2545C42.2231 30.1406 42.3452 30.0225 42.4607 29.9003M42.0951 30.2545C41.995 30.1844 41.8917 30.1133 41.7852 30.0412C41.7466 30.0151 41.7126 29.9843 41.6837 29.9502C40.2351 31.1955 37.9878 31.9318 36.4315 31.8662M42.0951 30.2545C41.3767 30.8945 40.4773 31.4029 39.5652 31.7593C38.6208 32.1283 37.628 32.3479 36.7608 32.3686M42.0951 30.2545C43.5895 31.301 44.384 32.1386 44.8002 33.1478L44.8004 33.1483C45.8421 35.6671 45.2493 37.8982 43.8429 39.5303L43.8429 39.5304C42.5709 41.0068 41.2393 41.6499 39.8267 41.8153C38.3943 41.9831 36.8349 41.6653 35.101 41.1234M42.4607 29.9003L35.125 34.6564C35.447 34.3675 35.6603 33.8961 35.8138 33.3145M42.4607 29.9003C43.9358 30.9429 44.8006 31.8373 45.2624 32.9572C46.3817 35.6638 45.7416 38.0929 44.2217 39.8567C41.5264 42.9853 38.4493 42.6964 34.9304 41.594M42.4607 29.9003L22.93 43.9281M36.4315 31.8662L35.8138 33.3145M36.4315 31.8662L36.4105 32.3657C36.5246 32.3706 36.6415 32.3715 36.7608 32.3686M36.4315 31.8662L36.8914 32.0623L36.7608 32.3686M35.8138 33.3145L36.2737 33.5107L36.2877 33.4779C36.2909 33.466 36.2941 33.454 36.2973 33.4421L35.8138 33.3145ZM16.5976 26.7292C16.5613 26.6874 16.5198 26.6391 16.4739 26.5854C16.2734 26.3507 15.9804 26.0022 15.6588 25.6103C15.0228 24.8353 14.2493 23.8607 13.8715 23.2711L13.8693 23.2678L13.8694 23.2678C13.5104 22.6978 13.1696 22.1184 12.8396 21.5574C12.7865 21.4671 12.7337 21.3772 12.6811 21.288C12.2996 20.6407 11.9309 20.0238 11.5524 19.4594L11.5517 19.4583C11.3293 19.1248 11.0697 18.9113 10.6228 18.7026C10.1756 18.4938 9.57622 18.305 8.67324 18.0206C8.6169 18.0028 8.55938 17.9847 8.50064 17.9662L8.49975 17.9659C7.4228 17.6242 6.36591 17.2454 5.29339 16.8301C4.22398 16.6069 3.39931 16.2623 2.78071 15.5217C2.17437 14.7958 1.82093 13.7514 1.52008 12.2748C1.43189 11.8437 1.64293 11.498 1.86778 11.2697C2.09101 11.043 2.39228 10.8605 2.67835 10.7149C2.97102 10.5659 3.28559 10.437 3.55883 10.3298C3.64602 10.2956 3.72698 10.2643 3.80169 10.2355C3.97284 10.1694 4.11118 10.116 4.2166 10.0688L4.21749 10.0684C7.17827 8.75043 10.8377 7.37516 13.996 7.60316C14.7308 6.32295 16.0262 5.55118 17.1624 5.50245C17.7632 5.47668 18.369 5.65542 18.782 6.13777C19.0783 6.48387 19.2327 6.93642 19.2487 7.46779C19.7633 7.41181 20.2794 7.40294 20.7365 7.46914C21.3495 7.55792 22.0386 7.81291 22.2948 8.47923C22.4165 8.79249 22.3831 9.11175 22.2922 9.38974C22.2018 9.66645 22.0436 9.93767 21.8621 10.191C21.6137 10.5378 21.2912 10.8921 20.9532 11.2313C21.2353 11.3591 21.5369 11.4241 21.8903 11.4058C22.1791 11.3889 22.5056 11.3378 22.8746 11.2423L22.8785 11.2413L22.8785 11.2413C23.3462 11.1244 23.877 10.9373 24.4767 10.6752C24.4861 10.6711 24.4957 10.6673 24.5054 10.6637C27.2932 9.64537 30.0338 9.52838 32.6753 10.5612L16.5976 26.7292ZM16.5976 26.7292C16.5932 26.8241 16.5889 26.9289 16.5842 27.0417C16.5635 27.5391 16.5364 28.1933 16.4768 28.84C16.435 29.2935 16.3788 29.72 16.3028 30.0592C16.2647 30.2289 16.2242 30.3652 16.1832 30.4669C16.1392 30.5758 16.1086 30.6094 16.1097 30.6084L16.1082 30.6099C15.9821 30.7348 15.7927 30.765 15.3023 30.7608C15.2801 30.7606 15.2574 30.7604 15.234 30.7601C14.8193 30.7555 14.2228 30.7488 13.6859 31.0793L13.6859 31.0793C13.419 31.2436 13.2178 31.4807 13.1276 31.7915C13.0412 32.0896 13.0721 32.4029 13.1619 32.7045C13.225 32.9165 13.4199 33.0618 13.6411 33.0618C13.8372 33.0618 14.0812 33.0698 14.364 33.0791C14.4524 33.082 14.5446 33.085 14.6402 33.0879C15.0351 33.1 15.478 33.1102 15.9162 33.1012C16.3526 33.0921 16.798 33.0638 17.1962 32.9953C17.5824 32.9287 17.9818 32.8153 18.2827 32.5992C18.4562 32.4748 18.6162 32.3056 18.7611 32.1208C18.705 32.7469 18.5804 33.1012 18.4507 33.3002C18.3141 33.51 18.1489 33.5834 17.9017 33.6094C17.7653 33.6237 17.6153 33.6215 17.4355 33.615C17.4117 33.6141 17.3872 33.6132 17.3621 33.6122C17.2091 33.6062 17.0328 33.5993 16.8631 33.6067C16.4537 33.6244 15.9561 33.7293 15.601 34.2111C15.3432 34.5602 15.2877 34.9882 15.3384 35.4049C15.369 35.6558 15.582 35.8445 15.8348 35.8445C16.0454 35.8445 16.3123 35.8528 16.6225 35.8625C16.7183 35.8655 16.8183 35.8686 16.922 35.8716C17.3548 35.8843 17.8414 35.8952 18.3223 35.8867C18.8013 35.8782 19.2877 35.8503 19.7184 35.7822C20.1343 35.7165 20.5618 35.6044 20.8761 35.3877C21.0536 35.2658 21.2113 35.0837 21.3471 34.8988C21.4886 34.7062 21.6317 34.475 21.7729 34.2235C22.0555 33.7204 22.3489 33.1033 22.6261 32.4799C22.9041 31.8547 23.1702 31.2133 23.3975 30.659C23.4478 30.5361 23.4961 30.418 23.542 30.3056C23.6268 30.0981 23.7038 29.9098 23.7717 29.746L25.5571 30.1992L25.5571 30.1994L25.5694 30.2022C25.9929 30.2984 26.3019 30.3975 26.5404 30.4987C26.4664 30.5042 26.3927 30.511 26.3206 30.5196C25.9284 30.5659 25.455 30.6722 25.094 30.9799C24.63 31.3739 24.5378 31.9223 24.5553 32.3978C24.5654 32.67 24.7914 32.8841 25.0638 32.8793L29.9936 32.793L16.5976 26.7292ZM29.85 32.7325L30.0488 32.2919L30.0485 32.2736C30.0509 32.2746 30.0533 32.2757 30.0557 32.2767C30.2075 32.3423 30.3623 32.403 30.5202 32.4587L29.85 32.7325ZM29.85 32.7325L29.8432 32.7477C29.5347 32.6085 29.2524 32.4659 28.9858 32.3106L29.0141 32.3101C29.0671 32.3407 29.1219 32.3717 29.1785 32.4029L29.1786 32.403C29.3964 32.5229 29.6201 32.6329 29.85 32.7325ZM27.5124 30.9622C27.5113 30.8391 27.5553 30.7155 27.6453 30.6181C27.6457 30.6177 27.6461 30.6173 27.6465 30.6169C27.5868 30.5644 27.5262 30.5134 27.4629 30.4638L27.5124 30.9622ZM27.5124 30.9622L27.4359 30.9653C27.3891 30.9673 27.3407 30.9689 27.2909 30.9702L27.5124 30.9622ZM36.7608 32.3686L32.6754 10.5613C37.7403 12.5401 40.2959 17.1845 42.1085 21.8509L42.1087 21.8513C42.7535 23.5152 43.246 25.1411 43.5486 26.72L43.549 26.7223C43.5779 26.8771 43.5943 27.0285 43.6002 27.1776M35.101 41.1234C34.8999 41.0401 34.6985 40.9555 34.4968 40.8708C33.0564 40.2661 31.6007 39.655 30.1115 39.4194C28.3677 39.1435 26.5709 39.3767 24.6257 40.6385L24.625 40.6389C23.1359 41.6083 22.1725 43.1347 22.4409 45.0687C22.4713 45.2877 22.6419 45.4607 22.8604 45.4942C23.0789 45.5277 23.2934 45.4138 23.3881 45.214C24.45 42.972 25.5862 42.1575 26.7678 41.964C28.0187 41.7591 29.455 42.215 31.2098 42.8745C31.4169 42.9523 31.6273 43.0326 31.8411 43.1141C35.1687 44.3829 39.3176 45.9648 44.1819 43.551M35.101 41.1234C35.1079 41.1263 35.1148 41.1291 35.1217 41.132L34.9304 41.594M35.101 41.1234C35.094 41.1212 35.0869 41.119 35.0798 41.1168L34.9304 41.594M44.1819 43.551C47.4191 41.9452 48.7215 38.6501 48.4694 35.3816C48.2247 32.2106 46.5176 28.9817 43.6002 27.1776M44.1819 43.551L43.9597 43.1031M44.1819 43.551C44.1819 43.551 44.1819 43.551 44.1819 43.551L43.9597 43.1031M43.6002 27.1776C43.6044 27.2816 43.6034 27.3845 43.598 27.4867L43.0987 27.4604M43.6002 27.1776C43.5173 27.1263 43.4333 27.0762 43.3484 27.0272L43.0987 27.4604M43.0987 27.4604C48.9198 30.817 49.983 40.1152 43.9597 43.1031M43.0987 27.4604C43.1099 27.2475 43.0987 27.0346 43.0575 26.8141L43.9597 43.1031M43.9597 43.1031C39.2968 45.4169 35.3416 43.9113 32.0014 42.6399C28.4982 41.3064 25.6716 40.2304 23.4148 44.0884C23.3862 44.3575 23.3908 44.6387 23.4314 44.9313L22.9362 45L22.4843 44.786C22.6294 44.4797 22.7779 44.194 22.93 43.9281M43.9597 43.1031L22.93 43.9281M22.93 43.9281C23.0927 42.7268 23.8326 41.7514 24.8978 41.058C28.3347 38.8286 31.1967 40.029 34.2993 41.3304C34.5085 41.4181 34.7188 41.5063 34.9304 41.594M30.9772 33.1215C31.2139 33.1837 31.4568 33.2359 31.7062 33.2778C31.8978 33.1485 32.0743 33.005 32.235 32.8469C32.0137 32.8221 31.7978 32.7891 31.587 32.7481C31.4042 32.8877 31.2011 33.0123 30.9772 33.1215ZM26.2327 35.2397C26.2292 35.2398 26.2257 35.2398 26.2223 35.2398L26.2227 35.2846C26.1942 35.4283 26.197 35.5803 26.2267 35.7398L26.2327 35.2397ZM13.862 8.09533C10.8651 7.91234 7.3557 9.21875 4.42083 10.5252C4.30285 10.578 4.14523 10.6388 3.96675 10.7078C3.14288 11.0259 1.87463 11.5157 2.01001 12.175L13.862 8.09533ZM8.65098 17.4893C8.71691 17.5101 8.78151 17.5304 8.84482 17.5504C10.6688 18.1247 11.4214 18.3617 11.9677 19.1809C12.409 19.839 12.8345 20.5624 13.2711 21.3048C13.6013 21.8661 13.9378 22.4383 14.2924 23.0013C14.8093 23.8078 16.1431 25.4241 16.7765 26.1695L8.65098 17.4893ZM28.3769 31.2724C28.5819 31.4381 28.8279 31.6164 29.1464 31.8077L29.1195 31.8081C28.8587 31.6491 28.6143 31.4756 28.3731 31.2766C28.3744 31.2752 28.3756 31.2738 28.3769 31.2724ZM25.1006 31.8785C25.0677 32.0052 25.0537 32.1414 25.0533 32.284L25.0463 31.8795L25.1006 31.8785ZM15.852 34.8445C15.8462 34.8445 15.8405 34.8445 15.8348 34.8445V34.9369C15.8393 34.9053 15.8451 34.8745 15.852 34.8445Z" fill="#FF8B00" stroke="black" stroke-linecap="round" stroke-linejoin="round"/>
<path d="M34.0345 14.4556C28.5172 10.2741 23 11.668 23 11.668C23 11.668 29.2069 7.48649 35.4138 12.3649C41.6207 17.2432 43 27 43 27C43 27 39.5517 18.6371 34.0345 14.4556Z" fill="#FFBF31"/>
</svg>
